<?xml version="1.0" encoding="iso-8859-1"?>
<!-- Generator: Adobe Illustrator 18.1.1, SVG Export Plug-In . SVG Version: 6.00 Build 0)  -->
<svg version="1.1" id="Capa_1" xmlns="http://www.w3.org/2000/svg" xmlns:xlink="http://www.w3.org/1999/xlink" x="0px" y="0px"
	 viewBox="0 0 28.048 28.048" fill="#eee" style="enable-background:new 0 0 28.048 28.048;" xml:space="preserve">
<g>
	<path d="M25.818,0.433H2.229C0.995,0.433,0,1.451,0,2.699v22.654c0,1.25,0.995,2.262,2.229,2.262h23.589
		c1.229,0,2.23-1.012,2.23-2.262V2.699C28.049,1.451,27.047,0.433,25.818,0.433z M3.642,2.06h20.765
		c1.082,0,1.963,0.895,1.963,1.994V8.54H1.678V4.054C1.678,2.954,2.554,2.06,3.642,2.06z M18.979,10.796v15.193H8.911V10.796H18.979
		z M1.678,23.995V10.796h5.06v15.193H3.642C2.554,25.99,1.678,25.097,1.678,23.995z M24.406,25.99h-3.251V10.796h5.214v13.199
		C26.369,25.097,25.488,25.99,24.406,25.99z"/>
	<g>
	</g>
	<g>
	</g>
	<g>
	</g>
	<g>
	</g>
	<g>
	</g>
	<g>
	</g>
	<g>
	</g>
	<g>
	</g>
	<g>
	</g>
	<g>
	</g>
	<g>
	</g>
	<g>
	</g>
	<g>
	</g>
	<g>
	</g>
	<g>
	</g>
</g>
<g>
</g>
<g>
</g>
<g>
</g>
<g>
</g>
<g>
</g>
<g>
</g>
<g>
</g>
<g>
</g>
<g>
</g>
<g>
</g>
<g>
</g>
<g>
</g>
<g>
</g>
<g>
</g>
<g>
</g>
</svg>
