<?xml version="1.0" encoding="iso-8859-1"?>
<!-- Generator: Adobe Illustrator 19.0.0, SVG Export Plug-In . SVG Version: 6.00 Build 0)  -->
<svg version="1.1" id="Layer_1" xmlns="http://www.w3.org/2000/svg" xmlns:xlink="http://www.w3.org/1999/xlink" x="0px" y="0px"
	 viewBox="0 0 469.333 469.333" fill="#EEEEEE" style="enable-background:new 0 0 469.333 469.333;" xml:space="preserve">
<g>
	<g>
		<path d="M437.333,149.333H320V32c0-17.643-14.357-32-32-32H181.333c-17.643,0-32,14.357-32,32v117.333H32
			c-17.643,0-32,14.357-32,32V288c0,17.643,14.357,32,32,32h117.333v117.333c0,17.643,14.357,32,32,32H288c17.643,0,32-14.357,32-32
			V320h117.333c17.643,0,32-14.357,32-32V181.333C469.333,163.691,454.976,149.333,437.333,149.333z"/>
	</g>
</g>
<g>
</g>
<g>
</g>
<g>
</g>
<g>
</g>
<g>
</g>
<g>
</g>
<g>
</g>
<g>
</g>
<g>
</g>
<g>
</g>
<g>
</g>
<g>
</g>
<g>
</g>
<g>
</g>
<g>
</g>
</svg>
