<svg data-v-423bf9ae="" xmlns="http://www.w3.org/2000/svg" viewBox="0 0 299.2505255368885 60" class="font"><!----><!----><defs data-v-423bf9ae=""><linearGradient data-v-423bf9ae="" gradientTransform="rotate(25)" id="dd49b1da-2288-4418-b079-5f7d28ed624d" x1="0%" y1="0%" x2="100%" y2="0%"><stop data-v-423bf9ae="" offset="0%" style="stop-color: rgb(13, 33, 117); stop-opacity: 1;"></stop><stop data-v-423bf9ae="" offset="100%" style="stop-color: rgb(31, 30, 251); stop-opacity: 1;"></stop></linearGradient></defs><g data-v-423bf9ae="" id="b8c42e34-74d3-40eb-81e3-f6eedb17bc05" fill="url(#dd49b1da-2288-4418-b079-5f7d28ed624d)" transform="matrix(4.408522947042699,0,0,4.408522947042699,-5.113889721240099,-14.988977963537529)"><path d="M4.51 6.55C3.58 6.55 2.71 7.23 2.28 7.77L2.28 3.68L1.16 3.68L1.16 13.52L2.28 13.52L2.28 8.98C2.83 8.27 3.60 7.64 4.32 7.64C5.40 7.64 5.91 8.29 5.91 9.46L5.92 13.52L7.04 13.52L7.04 9.35C7.04 7.46 5.91 6.55 4.51 6.55ZM10.25 5.26C10.77 5.26 11.18 4.81 11.18 4.33C11.18 3.84 10.77 3.40 10.25 3.40C9.72 3.40 9.32 3.84 9.32 4.33C9.32 4.81 9.72 5.26 10.25 5.26ZM10.95 6.69L8.75 6.69L8.75 7.74L9.83 7.74L9.83 13.52L10.95 13.52ZM16.60 6.55C15.82 6.55 15.01 7.15 14.49 8.05L14.49 6.69L13.37 6.69L13.37 13.52L14.49 13.52L14.49 9.39C15.00 8.48 15.50 7.72 16.43 7.72C16.79 7.72 17.14 7.86 17.43 8.08L17.43 6.74C17.19 6.62 16.91 6.55 16.60 6.55ZM24.83 9.87C24.83 8.00 23.79 6.55 21.68 6.55C19.76 6.55 18.39 8.20 18.39 10.14C18.39 12.09 19.88 13.73 21.96 13.73C23.02 13.73 23.73 13.26 24.01 12.99L24.01 11.85C23.56 12.18 22.94 12.63 21.96 12.63C20.64 12.63 19.74 11.69 19.58 10.54L24.83 10.54ZM19.61 9.58C19.80 8.50 20.56 7.64 21.68 7.64C22.64 7.64 23.58 8.26 23.72 9.58ZM28.31 4.33L27.08 4.33L27.08 13.30C27.08 14.41 26.32 15.26 24.76 15.82L25.36 17.01C27.07 16.39 28.31 15.38 28.31 13.06ZM36.57 6.69L35.41 6.69L35.41 10.73C35.41 11.92 34.59 12.56 33.67 12.56C32.76 12.56 31.94 11.92 31.94 10.73L31.94 6.69L30.78 6.69L30.78 10.73C30.78 12.54 32.03 13.66 33.67 13.66C35.31 13.66 36.57 12.54 36.57 10.73ZM42.04 6.55C41.11 6.55 40.24 7.23 39.81 7.77L39.81 6.69L38.69 6.69L38.69 13.52L39.81 13.52L39.81 8.98C40.36 8.27 41.13 7.64 41.85 7.64C42.93 7.64 43.44 8.29 43.44 9.46L43.45 13.52L44.57 13.52L44.57 9.35C44.57 7.46 43.44 6.55 42.04 6.55ZM47.78 5.26C48.30 5.26 48.71 4.81 48.71 4.33C48.71 3.84 48.30 3.40 47.78 3.40C47.25 3.40 46.85 3.84 46.85 4.33C46.85 4.81 47.25 5.26 47.78 5.26ZM48.48 6.69L46.28 6.69L46.28 7.74L47.36 7.74L47.36 13.52L48.48 13.52ZM53.99 6.55C51.91 6.55 50.42 8.20 50.42 10.14C50.42 12.09 51.91 13.73 53.99 13.73C56.07 13.73 57.56 12.09 57.56 10.14C57.56 8.20 56.07 6.55 53.99 6.55ZM53.99 7.64C55.45 7.64 56.40 8.82 56.40 10.14C56.40 11.47 55.45 12.63 53.99 12.63C52.53 12.63 51.58 11.47 51.58 10.14C51.58 8.82 52.53 7.64 53.99 7.64ZM62.63 6.55C61.85 6.55 61.04 7.15 60.53 8.05L60.53 6.69L59.40 6.69L59.40 13.52L60.53 13.52L60.53 9.39C61.03 8.48 61.54 7.72 62.47 7.72C62.82 7.72 63.18 7.86 63.46 8.08L63.46 6.74C63.22 6.62 62.95 6.55 62.63 6.55ZM66.94 6.55C65.47 6.55 64.53 7.41 64.53 8.57C64.53 9.35 64.78 9.98 65.84 10.38L66.86 10.75C67.50 10.98 67.84 11.20 67.84 11.63C67.84 12.21 67.31 12.63 66.45 12.63C65.76 12.63 64.80 12.21 64.42 11.92L64.42 13.13C64.74 13.36 65.72 13.73 66.53 13.73C67.99 13.73 69.04 12.80 69.04 11.63C69.04 10.86 68.61 10.25 67.72 9.94L66.57 9.53C65.94 9.31 65.73 8.91 65.73 8.57C65.73 8.13 66.16 7.64 67.02 7.64C67.70 7.64 68.43 7.98 68.81 8.27L68.81 7.07C68.50 6.84 67.74 6.55 66.94 6.55Z"></path></g><!----><!----></svg>